<?xml version="1.0" standalone="no"?>
<!DOCTYPE svg PUBLIC "-//W3C//DTD SVG 20010904//EN"
 "http://www.w3.org/TR/2001/REC-SVG-20010904/DTD/svg10.dtd">
<svg version="1.0" xmlns="http://www.w3.org/2000/svg"
 width="256.000000pt" height="256.000000pt" viewBox="0 0 256.000000 256.000000"
 preserveAspectRatio="xMidYMid meet">
<metadata>
Created by potrace 1.11, written by Peter Selinger 2001-2013
</metadata>
<g transform="translate(0.000000,256.000000) scale(0.100000,-0.100000)"
fill="#000000" stroke="none">
<path d="M1277 2550 c-9 -3 -13 -26 -12 -73 1 -38 -3 -71 -8 -74 -5 -3 -38 -6
-73 -5 -35 0 -66 -3 -68 -7 -3 -4 -6 -42 -7 -84 l-2 -77 -312 0 -313 0 2 -77
1 -78 65 -1 c36 -1 70 -2 75 -3 6 0 9 -33 7 -81 -3 -72 -2 -80 15 -81 10 -1
47 -2 83 -3 l65 -1 2 -71 1 -70 -235 0 c-145 1 -238 -3 -242 -9 -6 -8 -8 -125
-2 -157 0 -3 35 -6 77 -5 42 1 78 -2 81 -7 3 -5 6 -42 6 -82 -1 -61 2 -74 16
-75 9 -1 43 -2 76 -3 l60 -1 1 -80 c1 -44 0 -75 -2 -70 -6 15 -304 11 -314 -4
-4 -7 -7 -45 -6 -84 l1 -72 85 -5 85 -5 0 -70 c0 -70 0 -70 30 -75 17 -3 45
-3 63 1 17 4 32 3 32 -2 0 -5 6 -9 14 -9 11 0 14 -14 13 -65 -1 -36 2 -65 8
-65 5 0 4 -5 -3 -12 -7 -7 -42 -12 -85 -13 l-72 0 -2 -145 c-1 -181 0 -169
-21 -169 -126 -3 -264 1 -292 8 -3 0 -6 34 -5 73 l0 73 -30 1 c-16 1 -34 3
-40 4 -5 1 -27 2 -48 1 l-38 -1 3 -158 3 -157 68 0 c37 0 67 -3 67 -7 0 -5 7
-8 16 -8 11 0 14 -4 8 -12 -8 -11 -10 -69 -5 -125 1 -7 19 -12 48 -11 118 1
109 5 110 -59 1 -32 1 -68 2 -80 l1 -22 1108 0 1108 0 1 80 c0 51 -4 79 -11
80 -6 0 -76 1 -155 2 l-145 2 0 154 c-1 142 -2 154 -19 157 -11 1 -21 5 -24 8
-3 2 -16 1 -29 -4 -13 -5 -26 -6 -28 -1 -3 4 -19 6 -36 3 l-30 -4 0 81 c0 52
4 80 10 76 6 -3 10 -3 10 2 0 7 57 9 85 3 6 -1 20 -2 32 -1 20 1 21 6 20 79
l-2 77 -140 2 c-77 0 -147 2 -156 2 -13 1 -15 8 -10 39 4 20 4 51 0 69 -3 17
-3 36 0 41 3 5 45 9 94 8 48 -1 87 2 87 6 0 4 6 5 13 2 26 -10 267 -9 270 1 2
6 3 45 2 87 0 43 3 78 8 78 6 0 6 5 0 13 -11 14 -12 102 -1 113 4 3 4 14 0 23
-4 9 -8 45 -7 81 l0 65 -75 5 -74 5 -2 165 c-2 91 -3 198 -3 238 l0 72 -80 0
-80 0 -3 82 -3 83 -75 0 -75 0 -2 60 c-1 33 -2 68 -2 78 -1 15 -15 17 -155 17
l-154 0 1 73 c0 40 -2 78 -6 84 -4 5 -39 11 -78 11 -39 0 -74 4 -77 7 -4 3 -7
32 -8 63 -1 31 -2 64 -3 72 -1 12 -16 15 -71 15 -39 0 -76 -2 -83 -5z m320
-1032 c-3 -8 -6 -5 -6 6 -1 11 2 17 5 13 3 -3 4 -12 1 -19z m0 -80 c-3 -8 -6
-5 -6 6 -1 11 2 17 5 13 3 -3 4 -12 1 -19z m0 -80 c-3 -8 -6 -5 -6 6 -1 11 2
17 5 13 3 -3 4 -12 1 -19z m0 -80 c-3 -8 -6 -5 -6 6 -1 11 2 17 5 13 3 -3 4
-12 1 -19z m0 -80 c-3 -8 -6 -5 -6 6 -1 11 2 17 5 13 3 -3 4 -12 1 -19z
m-1127 -874 c0 -8 -19 -13 -24 -6 -3 5 1 9 9 9 8 0 15 -2 15 -3z"/>
</g>
</svg>
